<svg width="142" height="146" fill="none" xmlns="http://www.w3.org/2000/svg"><path fill-rule="evenodd" clip-rule="evenodd" d="M68.865 64.995c.612.2 1.252.3 1.895.295a6.276 6.276 0 0 0 6.024-8.214C74.72 50.547 64.02 17.65 56.228 9.856c-9.652-8.908-24.616-8.608-33.904.68-9.288 9.287-9.587 24.251-.678 33.903 7.834 7.793 40.69 18.492 47.219 20.556zM27.958 22.613a11.836 11.836 0 0 1 10.949-7.275 11.794 11.794 0 0 1 8.298 3.454c2.864 2.864 8.466 16.217 13.437 30.16-13.943-5.013-27.296-10.574-30.16-13.438a11.837 11.837 0 0 1-2.524-12.9z" fill="#B6D3F8"/><path fill-rule="evenodd" clip-rule="evenodd" d="M65.66 62.727a6.276 6.276 0 0 0 5.115 2.565 6.19 6.19 0 0 0 1.938-.295c6.53-2.064 39.427-12.763 47.219-20.556a24.472 24.472 0 0 0-10.58-41.705A24.473 24.473 0 0 0 85.35 9.859c-7.961 7.792-18.534 40.69-20.598 47.219a6.276 6.276 0 0 0 .908 5.65zm28.535-43.939a11.71 11.71 0 0 1 8.425-3.454h-.075a11.837 11.837 0 0 1 8.373 20.177c-2.864 2.864-16.217 8.508-30.16 13.437 5.013-13.943 10.573-27.296 13.438-30.16z" fill="#B6D3F8"/><path fill="#fff" d="M.016 58.976h140.899v16.849H.016z"/><path fill="#B6D3F8" d="M76.746 88.461h51.979v56.023H76.746z"/><path d="M12.636 88.46h-.042v56.024h51.515V88.461H12.636z" fill="#fff"/></svg>