<svg width="68" height="70" viewBox="0 0 68 70" fill="none" xmlns="http://www.w3.org/2000/svg">
<g id="share-active">
<rect id="Rectangle" y="28.72" width="66.9" height="8" fill="#B6D3F8"/>
<path id="Shape" fill-rule="evenodd" clip-rule="evenodd" d="M32.7 31.58C32.9904 31.6751 33.2944 31.7224 33.6 31.72C34.5582 31.7282 35.462 31.2751 36.0287 30.5024C36.5954 29.7296 36.7559 28.7314 36.46 27.82C35.48 24.72 30.4 9.09998 26.7 5.39998C22.1171 1.17 15.0122 1.3122 10.6022 5.72219C6.19221 10.1322 6.05 17.2371 10.28 21.82C14 25.52 29.6 30.6 32.7 31.58ZM13.2817 11.4546C14.157 9.35827 16.2083 7.99506 18.48 7.99998C19.9583 8.00517 21.3746 8.59469 22.42 9.63998C23.78 11 26.44 17.34 28.8 23.96C22.18 21.58 15.84 18.94 14.48 17.58C12.8793 15.968 12.4064 13.5509 13.2817 11.4546Z" fill="#B6D3F8"/>
<path id="Shape_2" fill-rule="evenodd" clip-rule="evenodd" d="M31.1713 30.5024C31.738 31.2751 32.6417 31.7282 33.6 31.72C33.9121 31.7225 34.2227 31.6752 34.52 31.58C37.62 30.6 53.24 25.52 56.94 21.82C60.0722 18.929 61.3701 14.5553 60.322 10.4237C59.2738 6.29223 56.0478 3.06619 51.9162 2.01802C47.7847 0.969861 43.4109 2.26783 40.52 5.39999C36.74 9.09999 31.72 24.72 30.74 27.82C30.4441 28.7315 30.6046 29.7296 31.1713 30.5024ZM44.72 9.63999C45.7775 8.57612 47.22 7.98469 48.72 7.99999H48.6845C50.9465 8.0049 52.9861 9.36583 53.8583 11.4546C54.7335 13.5509 54.2607 15.968 52.66 17.58C51.3 18.94 44.96 21.62 38.34 23.96C40.72 17.34 43.36 11 44.72 9.63999Z" fill="#B6D3F8"/>
<rect id="Rectangle_2" x="36.44" y="42.72" width="24.68" height="26.6" fill="#B6D3F8"/>
<path id="Path" d="M6.00001 42.72H5.98001V69.32H30.44V42.72H6.00001Z" fill="#0066F5"/>
</g>
</svg>
