<svg width="48" height="30" viewBox="0 0 48 30" xmlns="http://www.w3.org/2000/svg" svg-inline="" role="presentation" focusable="false" tabindex="-1"><g fill="none" fill-rule="evenodd"><path d="M-6.1-6h60.3v49.4H-6.1z"></path><g fill-rule="nonzero"><path fill="#FF5F00" d="M17.5 3.3h12.9v23.2H17.5z"></path><path fill="#EB001B" d="M18.4 15c0-4.5 2.1-8.8 5.6-11.6-6.4-5-15.7-3.9-20.7 2.5s-4 15.6 2.4 20.7c5.4 4.2 12.9 4.2 18.3 0-3.6-2.8-5.6-7.1-5.6-11.6z"></path><path fill="#F79E1B" d="M47.9 15c0 8.2-6.6 14.8-14.8 14.8-3.3 0-6.5-1.1-9.1-3.2 6.4-5 7.5-14.3 2.5-20.7-.7-.9-1.6-1.8-2.5-2.5 6.4-5 15.7-3.9 20.7 2.5 2.1 2.5 3.2 5.7 3.2 9.1zm-1.4 9.1v-.5h.2v-.1h-.5v.1h.2l.1.5zm.9 0v-.6h-.1l-.2.4-.1-.4h-.1v.6h.1v-.4l.2.4h.1l.2-.4-.1.4z"></path></g></g></svg>