<svg width="4526" height="1168" viewBox="0 0 4526 1168" fill="none" xmlns="http://www.w3.org/2000/svg">
<circle cx="684" cy="528" r="334" fill="#0066F5"/>
<circle cx="666.5" cy="718.5" r="69.5" fill="white"/>
<path d="M1473.4 775L1392.4 658H1387.6H1303V775H1205.8V355H1387.6C1424.8 355 1457 361.2 1484.2 373.6C1511.8 386 1533 403.6 1547.8 426.4C1562.6 449.2 1570 476.2 1570 507.4C1570 538.6 1562.4 565.6 1547.2 588.4C1532.4 610.8 1511.2 628 1483.6 640L1577.8 775H1473.4ZM1471.6 507.4C1471.6 483.8 1464 465.8 1448.8 453.4C1433.6 440.6 1411.4 434.2 1382.2 434.2H1303V580.6H1382.2C1411.4 580.6 1433.6 574.2 1448.8 561.4C1464 548.6 1471.6 530.6 1471.6 507.4ZM1647.01 355H1744.21V775H1647.01V355ZM2127.69 558.4H2216.49V728.8C2193.69 746 2167.29 759.2 2137.29 768.4C2107.29 777.6 2077.09 782.2 2046.69 782.2C2003.09 782.2 1963.89 773 1929.09 754.6C1894.29 735.8 1866.89 710 1846.89 677.2C1827.29 644 1817.49 606.6 1817.49 565C1817.49 523.4 1827.29 486.2 1846.89 453.4C1866.89 420.2 1894.49 394.4 1929.69 376C1964.89 357.2 2004.49 347.8 2048.49 347.8C2085.29 347.8 2118.69 354 2148.69 366.4C2178.69 378.8 2203.89 396.8 2224.29 420.4L2161.89 478C2131.89 446.4 2095.69 430.6 2053.29 430.6C2026.49 430.6 2002.69 436.2 1981.89 447.4C1961.09 458.6 1944.89 474.4 1933.29 494.8C1921.69 515.2 1915.89 538.6 1915.89 565C1915.89 591 1921.69 614.2 1933.29 634.6C1944.89 655 1960.89 671 1981.29 682.6C2002.09 693.8 2025.69 699.4 2052.09 699.4C2080.09 699.4 2105.29 693.4 2127.69 681.4V558.4ZM2306.78 355H2403.98V775H2306.78V355ZM2888.85 355V775H2809.05L2599.65 520V775H2503.65V355H2584.05L2792.85 610V355H2888.85ZM3264.82 685H3069.82L3032.62 775H2933.02L3120.22 355H3216.22L3404.02 775H3302.02L3264.82 685ZM3234.22 611.2L3167.62 450.4L3101.02 611.2H3234.22ZM3513.5 434.2H3379.1V355H3745.1V434.2H3610.7V775H3513.5V434.2ZM4122.6 697V775H3797.4V355H4114.8V433H3894V524.2H4089V599.8H3894V697H4122.6Z" fill="black"/>
</svg>
