<svg width="9736" height="2512" viewBox="0 0 9736 2512" fill="none" xmlns="http://www.w3.org/2000/svg">
<circle cx="3628" cy="1360" r="334" fill="#0066F5"/>
<circle cx="3610.5" cy="1550.5" r="69.5" fill="white"/>
<path d="M4417.4 1607L4336.4 1490H4331.6H4247V1607H4149.8V1187H4331.6C4368.8 1187 4401 1193.2 4428.2 1205.6C4455.8 1218 4477 1235.6 4491.8 1258.4C4506.6 1281.2 4514 1308.2 4514 1339.4C4514 1370.6 4506.4 1397.6 4491.2 1420.4C4476.4 1442.8 4455.2 1460 4427.6 1472L4521.8 1607H4417.4ZM4415.6 1339.4C4415.6 1315.8 4408 1297.8 4392.8 1285.4C4377.6 1272.6 4355.4 1266.2 4326.2 1266.2H4247V1412.6H4326.2C4355.4 1412.6 4377.6 1406.2 4392.8 1393.4C4408 1380.6 4415.6 1362.6 4415.6 1339.4ZM4591.01 1187H4688.21V1607H4591.01V1187ZM5071.69 1390.4H5160.49V1560.8C5137.69 1578 5111.29 1591.2 5081.29 1600.4C5051.29 1609.6 5021.09 1614.2 4990.69 1614.2C4947.09 1614.2 4907.89 1605 4873.09 1586.6C4838.29 1567.8 4810.89 1542 4790.89 1509.2C4771.29 1476 4761.49 1438.6 4761.49 1397C4761.49 1355.4 4771.29 1318.2 4790.89 1285.4C4810.89 1252.2 4838.49 1226.4 4873.69 1208C4908.89 1189.2 4948.49 1179.8 4992.49 1179.8C5029.29 1179.8 5062.69 1186 5092.69 1198.4C5122.69 1210.8 5147.89 1228.8 5168.29 1252.4L5105.89 1310C5075.89 1278.4 5039.69 1262.6 4997.29 1262.6C4970.49 1262.6 4946.69 1268.2 4925.89 1279.4C4905.09 1290.6 4888.89 1306.4 4877.29 1326.8C4865.69 1347.2 4859.89 1370.6 4859.89 1397C4859.89 1423 4865.69 1446.2 4877.29 1466.6C4888.89 1487 4904.89 1503 4925.29 1514.6C4946.09 1525.8 4969.69 1531.4 4996.09 1531.4C5024.09 1531.4 5049.29 1525.4 5071.69 1513.4V1390.4ZM5250.78 1187H5347.98V1607H5250.78V1187ZM5832.85 1187V1607H5753.05L5543.65 1352V1607H5447.65V1187H5528.05L5736.85 1442V1187H5832.85ZM6208.82 1517H6013.82L5976.62 1607H5877.02L6064.22 1187H6160.22L6348.02 1607H6246.02L6208.82 1517ZM6178.22 1443.2L6111.62 1282.4L6045.02 1443.2H6178.22ZM6457.5 1266.2H6323.1V1187H6689.1V1266.2H6554.7V1607H6457.5V1266.2ZM7066.6 1529V1607H6741.4V1187H7058.8V1265H6838V1356.2H7033V1431.8H6838V1529H7066.6Z" fill="white"/>
</svg>
